<svg width="599" height="251" viewBox="0 0 599 251" fill="none" xmlns="http://www.w3.org/2000/svg">
<path d="M23.8896 199.203H25.4541L28.8027 209.636L32.1426 199.203H33.707L29.4092 212H28.1787L23.8896 199.203ZM23.3799 199.203H24.751L24.9883 207.008V212H23.3799V199.203ZM32.8369 199.203H34.208V212H32.5996V207.008L32.8369 199.203ZM41.582 209.803V202.49H43.1377V212H41.6611L41.582 209.803ZM41.8721 207.799L42.4873 207.781C42.4873 208.414 42.4316 209 42.3203 209.539C42.2148 210.072 42.0391 210.535 41.793 210.928C41.5527 211.32 41.2334 211.628 40.835 211.851C40.4365 212.067 39.9473 212.176 39.3672 212.176C38.9746 212.176 38.6172 212.108 38.2949 211.974C37.9785 211.839 37.7031 211.631 37.4688 211.35C37.2402 211.068 37.0615 210.702 36.9326 210.251C36.8096 209.8 36.748 209.258 36.748 208.625V202.49H38.2949V208.643C38.2949 209.07 38.333 209.425 38.4092 209.706C38.4854 209.981 38.5879 210.201 38.7168 210.365C38.8457 210.523 38.9893 210.635 39.1475 210.699C39.3057 210.764 39.4668 210.796 39.6309 210.796C40.1816 210.796 40.6211 210.664 40.9492 210.4C41.2773 210.131 41.5117 209.771 41.6523 209.319C41.7988 208.862 41.8721 208.355 41.8721 207.799ZM48.9473 202.49V203.738H44.5088V202.49H48.9473ZM45.959 200.179H47.5146V209.645C47.5146 209.967 47.5527 210.21 47.6289 210.374C47.7109 210.538 47.8135 210.646 47.9365 210.699C48.0596 210.752 48.1914 210.778 48.332 210.778C48.4375 210.778 48.5547 210.767 48.6836 210.743C48.8125 210.714 48.9004 210.69 48.9473 210.673L48.9385 212C48.833 212.041 48.6924 212.079 48.5166 212.114C48.3408 212.155 48.1182 212.176 47.8486 212.176C47.5146 212.176 47.2041 212.097 46.917 211.938C46.6299 211.78 46.3984 211.517 46.2227 211.147C46.0469 210.772 45.959 210.269 45.959 209.636V200.179ZM55.46 210.374V205.215C55.46 204.84 55.4014 204.538 55.2842 204.31C55.1729 204.081 55.0029 203.914 54.7744 203.809C54.5518 203.703 54.2705 203.65 53.9307 203.65C53.6025 203.65 53.3184 203.718 53.0781 203.853C52.8438 203.987 52.6621 204.166 52.5332 204.389C52.4102 204.611 52.3486 204.857 52.3486 205.127H50.793C50.793 204.787 50.8662 204.45 51.0127 204.116C51.165 203.782 51.3818 203.48 51.6631 203.211C51.9443 202.936 52.2812 202.719 52.6738 202.561C53.0723 202.396 53.5176 202.314 54.0098 202.314C54.5957 202.314 55.1143 202.411 55.5654 202.604C56.0166 202.792 56.3711 203.1 56.6289 203.527C56.8867 203.955 57.0156 204.523 57.0156 205.232V209.926C57.0156 210.242 57.0391 210.579 57.0859 210.937C57.1387 211.294 57.2119 211.602 57.3057 211.859V212H55.6973C55.6211 211.812 55.5625 211.563 55.5215 211.253C55.4805 210.937 55.46 210.644 55.46 210.374ZM55.7061 206.234L55.7236 207.377H54.6426C54.2734 207.377 53.9365 207.418 53.6318 207.5C53.333 207.582 53.0752 207.702 52.8584 207.86C52.6416 208.013 52.4746 208.203 52.3574 208.432C52.2461 208.66 52.1904 208.921 52.1904 209.214C52.1904 209.595 52.2432 209.899 52.3486 210.128C52.4541 210.351 52.6123 210.512 52.8232 210.611C53.0342 210.711 53.3008 210.761 53.623 210.761C54.0156 210.761 54.3613 210.67 54.6602 210.488C54.959 210.307 55.1904 210.087 55.3545 209.829C55.5244 209.571 55.6035 209.331 55.5918 209.108L55.9346 209.838C55.9111 210.066 55.835 210.315 55.7061 210.585C55.583 210.849 55.4102 211.104 55.1875 211.35C54.9648 211.59 54.7012 211.789 54.3965 211.947C54.0977 212.1 53.7607 212.176 53.3857 212.176C52.835 212.176 52.3516 212.07 51.9355 211.859C51.5254 211.648 51.2061 211.338 50.9775 210.928C50.749 210.518 50.6348 210.011 50.6348 209.407C50.6348 208.95 50.7139 208.528 50.8721 208.142C51.0303 207.755 51.2646 207.421 51.5752 207.14C51.8857 206.853 52.2754 206.63 52.7441 206.472C53.2188 206.313 53.7666 206.234 54.3877 206.234H55.7061ZM60.9883 204.521V212H59.4326V202.49H60.9004L60.9883 204.521ZM60.6104 206.885L59.9775 206.858C59.9717 206.208 60.0449 205.607 60.1973 205.057C60.3555 204.5 60.5781 204.017 60.8652 203.606C61.1582 203.196 61.5068 202.88 61.9111 202.657C62.3154 202.429 62.7637 202.314 63.2559 202.314C63.6426 202.314 63.9941 202.379 64.3105 202.508C64.627 202.631 64.8965 202.83 65.1191 203.105C65.3418 203.381 65.5117 203.738 65.6289 204.178C65.752 204.611 65.8135 205.142 65.8135 205.769V212H64.2578V205.751C64.2578 205.253 64.2021 204.854 64.0908 204.556C63.9854 204.251 63.8213 204.031 63.5986 203.896C63.3818 203.756 63.1064 203.686 62.7725 203.686C62.4678 203.686 62.1836 203.771 61.9199 203.94C61.6562 204.11 61.4248 204.345 61.2256 204.644C61.0322 204.942 60.8799 205.285 60.7686 205.672C60.6631 206.053 60.6104 206.457 60.6104 206.885ZM71.623 202.49V203.738H67.1846V202.49H71.623ZM68.6348 200.179H70.1904V209.645C70.1904 209.967 70.2285 210.21 70.3047 210.374C70.3867 210.538 70.4893 210.646 70.6123 210.699C70.7354 210.752 70.8672 210.778 71.0078 210.778C71.1133 210.778 71.2305 210.767 71.3594 210.743C71.4883 210.714 71.5762 210.69 71.623 210.673L71.6143 212C71.5088 212.041 71.3682 212.079 71.1924 212.114C71.0166 212.155 70.7939 212.176 70.5244 212.176C70.1904 212.176 69.8799 212.097 69.5928 211.938C69.3057 211.78 69.0742 211.517 68.8984 211.147C68.7227 210.772 68.6348 210.269 68.6348 209.636V200.179Z" fill="black"/>
<rect x="103" y="172" width="484" height="69" rx="24" fill="#D9D9D9" stroke="black" stroke-width="2"/>
<line x1="164.5" y1="171" x2="164.5" y2="242" stroke="black"/>
<line x1="225.5" y1="171" x2="225.5" y2="242" stroke="black"/>
<path d="M286 171L286 242" stroke="black"/>
<line x1="347.5" y1="171" x2="347.5" y2="242" stroke="black"/>
<line x1="408.5" y1="171" x2="408.5" y2="242" stroke="black"/>
<path d="M469 171L469 242" stroke="black"/>
<path d="M530 171L530 242" stroke="black"/>
<path d="M480.506 206.017C480.772 195.745 489.181 187.5 499.517 187.5C509.852 187.5 518.262 195.745 518.527 206.017H480.506Z" fill="#FF0000" stroke="black"/>
<path d="M518.528 207.018C518.283 217.29 509.889 225.551 499.554 225.572C489.219 225.592 480.793 217.363 480.507 207.092L518.528 207.018Z" fill="white" stroke="black"/>
<mask id="path-12-outside-1_5_2" maskUnits="userSpaceOnUse" x="480.349" y="201.729" width="39" height="10" fill="black">
<rect fill="white" x="480.349" y="201.729" width="39" height="10"/>
<path d="M502.305 206.517C502.305 208.056 501.056 209.305 499.517 209.305C497.977 209.305 496.729 208.056 496.729 206.517C496.729 204.977 497.977 203.729 499.517 203.729C501.056 203.729 502.305 204.977 502.305 206.517Z"/>
</mask>
<path d="M502.305 206.517C502.305 208.056 501.056 209.305 499.517 209.305C497.977 209.305 496.729 208.056 496.729 206.517C496.729 204.977 497.977 203.729 499.517 203.729C501.056 203.729 502.305 204.977 502.305 206.517Z" fill="white"/>
<path d="M480.349 207.517H497.077V205.517H480.349V207.517ZM501.956 207.517H518.685V205.517H501.956V207.517ZM500.305 206.517C500.305 206.952 499.952 207.305 499.517 207.305V211.305C502.161 211.305 504.305 209.161 504.305 206.517H500.305ZM499.517 207.305C499.081 207.305 498.729 206.952 498.729 206.517H494.729C494.729 209.161 496.872 211.305 499.517 211.305V207.305ZM498.729 206.517C498.729 206.081 499.081 205.729 499.517 205.729V201.729C496.872 201.729 494.729 203.872 494.729 206.517H498.729ZM499.517 205.729C499.952 205.729 500.305 206.081 500.305 206.517H504.305C504.305 203.872 502.161 201.729 499.517 201.729V205.729Z" fill="black" mask="url(#path-12-outside-1_5_2)"/>
<path d="M557.146 210.976L545.829 222.293L541.707 218.171L553.024 206.854L553.378 206.5L553.024 206.146L541.707 194.829L545.829 190.707L557.146 202.024L557.5 202.378L557.854 202.024L569.171 190.707L573.293 194.829L561.976 206.146L561.622 206.5L561.976 206.854L573.293 218.171L569.171 222.293L557.854 210.976L557.5 210.622L557.146 210.976Z" fill="#D63232" stroke="black"/>
<path d="M395 187H371.935L365.016 205.621H370.161L362 226L387.194 201.266H380.984L395 187Z" fill="url(#paint0_linear_5_2)" stroke="black"/>
<path d="M451.195 219.438V223H428.859V219.883L440.039 207.438C441.414 205.906 442.477 204.609 443.227 203.547C443.992 202.469 444.523 201.508 444.82 200.664C445.133 199.805 445.289 198.93 445.289 198.039C445.289 196.914 445.055 195.898 444.586 194.992C444.133 194.07 443.461 193.336 442.57 192.789C441.68 192.242 440.602 191.969 439.336 191.969C437.82 191.969 436.555 192.266 435.539 192.859C434.539 193.438 433.789 194.25 433.289 195.297C432.789 196.344 432.539 197.547 432.539 198.906H428.203C428.203 196.984 428.625 195.227 429.469 193.633C430.312 192.039 431.562 190.773 433.219 189.836C434.875 188.883 436.914 188.406 439.336 188.406C441.492 188.406 443.336 188.789 444.867 189.555C446.398 190.305 447.57 191.367 448.383 192.742C449.211 194.102 449.625 195.695 449.625 197.523C449.625 198.523 449.453 199.539 449.109 200.57C448.781 201.586 448.32 202.602 447.727 203.617C447.148 204.633 446.469 205.633 445.688 206.617C444.922 207.602 444.102 208.57 443.227 209.523L434.086 219.438H451.195Z" fill="#E95A47" fill-opacity="0.7"/>
<path d="M451.195 219.438H452.195V218.438H451.195V219.438ZM451.195 223V224H452.195V223H451.195ZM428.859 223H427.859V224H428.859V223ZM428.859 219.883L428.115 219.215L427.859 219.5V219.883H428.859ZM440.039 207.438L440.783 208.106L440.783 208.106L440.039 207.438ZM443.227 203.547L442.411 202.968L442.41 202.97L443.227 203.547ZM444.82 200.664L443.88 200.322L443.877 200.332L444.82 200.664ZM444.586 194.992L443.688 195.433L443.693 195.443L443.698 195.452L444.586 194.992ZM435.539 192.859L436.04 193.725L436.044 193.723L435.539 192.859ZM432.539 198.906V199.906H433.539V198.906H432.539ZM428.203 198.906H427.203V199.906H428.203V198.906ZM433.219 189.836L433.711 190.706L433.718 190.703L433.219 189.836ZM444.867 189.555L444.42 190.449L444.427 190.453L444.867 189.555ZM448.383 192.742L447.522 193.251L447.529 193.262L448.383 192.742ZM449.109 200.57L448.161 200.254L448.158 200.263L449.109 200.57ZM447.727 203.617L446.863 203.112L446.857 203.122L447.727 203.617ZM445.688 206.617L444.904 205.995L444.898 206.003L445.688 206.617ZM443.227 209.523L443.962 210.201L443.963 210.2L443.227 209.523ZM434.086 219.438L433.351 218.76L431.804 220.438H434.086V219.438ZM450.195 219.438V223H452.195V219.438H450.195ZM451.195 222H428.859V224H451.195V222ZM429.859 223V219.883H427.859V223H429.859ZM429.603 220.551L440.783 208.106L439.295 206.769L428.115 219.215L429.603 220.551ZM440.783 208.106C442.171 206.56 443.262 205.231 444.044 204.124L442.41 202.97C441.691 203.988 440.657 205.253 439.295 206.769L440.783 208.106ZM444.042 204.126C444.838 203.004 445.425 201.959 445.764 200.996L443.877 200.332C443.622 201.057 443.146 201.933 442.411 202.968L444.042 204.126ZM445.76 201.006C446.111 200.04 446.289 199.049 446.289 198.039H444.289C444.289 198.81 444.154 199.57 443.881 200.322L445.76 201.006ZM446.289 198.039C446.289 196.771 446.024 195.595 445.474 194.533L443.698 195.452C444.086 196.202 444.289 197.057 444.289 198.039H446.289ZM445.483 194.551C444.945 193.456 444.142 192.581 443.094 191.937L442.047 193.641C442.78 194.091 443.32 194.684 443.688 195.433L445.483 194.551ZM443.094 191.937C442.015 191.275 440.747 190.969 439.336 190.969V192.969C440.456 192.969 441.344 193.21 442.047 193.641L443.094 191.937ZM439.336 190.969C437.693 190.969 436.241 191.291 435.034 191.996L436.044 193.723C436.868 193.241 437.948 192.969 439.336 192.969V190.969ZM435.039 191.994C433.863 192.673 432.973 193.638 432.387 194.866L434.191 195.728C434.605 194.862 435.215 194.202 436.04 193.725L435.039 191.994ZM432.387 194.866C431.812 196.069 431.539 197.423 431.539 198.906H433.539C433.539 197.671 433.766 196.619 434.191 195.728L432.387 194.866ZM432.539 197.906H428.203V199.906H432.539V197.906ZM429.203 198.906C429.203 197.136 429.59 195.541 430.353 194.101L428.585 193.165C427.66 194.912 427.203 196.832 427.203 198.906H429.203ZM430.353 194.101C431.102 192.685 432.212 191.555 433.711 190.706L432.726 188.966C430.913 189.992 429.523 191.393 428.585 193.165L430.353 194.101ZM433.718 190.703C435.187 189.857 437.043 189.406 439.336 189.406V187.406C436.785 187.406 434.563 187.908 432.72 188.969L433.718 190.703ZM439.336 189.406C441.376 189.406 443.059 189.769 444.42 190.449L445.314 188.66C443.613 187.81 441.608 187.406 439.336 187.406V189.406ZM444.427 190.453C445.796 191.123 446.816 192.056 447.522 193.251L449.244 192.233C448.325 190.679 447.001 189.486 445.307 188.657L444.427 190.453ZM447.529 193.262C448.248 194.443 448.625 195.851 448.625 197.523H450.625C450.625 195.54 450.174 193.76 449.237 192.222L447.529 193.262ZM448.625 197.523C448.625 198.407 448.473 199.316 448.161 200.254L450.058 200.887C450.433 199.762 450.625 198.64 450.625 197.523H448.625ZM448.158 200.263C447.854 201.203 447.424 202.153 446.863 203.112L448.59 204.122C449.216 203.05 449.708 201.969 450.061 200.878L448.158 200.263ZM446.857 203.122C446.306 204.09 445.656 205.048 444.904 205.996L446.471 207.239C447.281 206.217 447.99 205.175 448.596 204.112L446.857 203.122ZM444.898 206.003C444.15 206.965 443.347 207.913 442.49 208.847L443.963 210.2C444.856 209.227 445.694 208.238 446.477 207.231L444.898 206.003ZM442.491 208.846L433.351 218.76L434.821 220.115L443.962 210.201L442.491 208.846ZM434.086 220.438H451.195V218.438H434.086V220.438Z" fill="black" fill-opacity="0.7"/>
<path d="M239.506 206.017C239.772 195.745 248.181 187.5 258.517 187.5C268.852 187.5 277.262 195.745 277.527 206.017H239.506Z" fill="#FF0000" stroke="black"/>
<path d="M277.528 207.018C277.283 217.29 268.889 225.551 258.554 225.572C248.219 225.592 239.793 217.363 239.507 207.092L277.528 207.018Z" fill="white" stroke="black"/>
<mask id="path-20-outside-2_5_2" maskUnits="userSpaceOnUse" x="239.349" y="201.729" width="39" height="10" fill="black">
<rect fill="white" x="239.349" y="201.729" width="39" height="10"/>
<path d="M261.305 206.517C261.305 208.056 260.056 209.305 258.517 209.305C256.977 209.305 255.729 208.056 255.729 206.517C255.729 204.977 256.977 203.729 258.517 203.729C260.056 203.729 261.305 204.977 261.305 206.517Z"/>
</mask>
<path d="M261.305 206.517C261.305 208.056 260.056 209.305 258.517 209.305C256.977 209.305 255.729 208.056 255.729 206.517C255.729 204.977 256.977 203.729 258.517 203.729C260.056 203.729 261.305 204.977 261.305 206.517Z" fill="white"/>
<path d="M239.349 207.517H256.077V205.517H239.349V207.517ZM260.956 207.517H277.685V205.517H260.956V207.517ZM259.305 206.517C259.305 206.952 258.952 207.305 258.517 207.305V211.305C261.161 211.305 263.305 209.161 263.305 206.517H259.305ZM258.517 207.305C258.081 207.305 257.729 206.952 257.729 206.517H253.729C253.729 209.161 255.872 211.305 258.517 211.305V207.305ZM257.729 206.517C257.729 206.081 258.081 205.729 258.517 205.729V201.729C255.872 201.729 253.729 203.872 253.729 206.517H257.729ZM258.517 205.729C258.952 205.729 259.305 206.081 259.305 206.517H263.305C263.305 203.872 261.161 201.729 258.517 201.729V205.729Z" fill="black" mask="url(#path-20-outside-2_5_2)"/>
<path d="M316.146 210.976L304.829 222.293L300.707 218.171L312.024 206.854L312.378 206.5L312.024 206.146L300.707 194.829L304.829 190.707L316.146 202.024L316.5 202.378L316.854 202.024L328.171 190.707L332.293 194.829L320.976 206.146L320.622 206.5L320.976 206.854L332.293 218.171L328.171 222.293L316.854 210.976L316.5 210.622L316.146 210.976Z" fill="#D63232" stroke="black"/>
<path d="M198.086 188.688V223H193.75V194.102L185.008 197.289V193.375L197.406 188.688H198.086Z" fill="#E95A47" fill-opacity="0.7"/>
<path d="M198.086 188.688H199.086V187.688H198.086V188.688ZM198.086 223V224H199.086V223H198.086ZM193.75 223H192.75V224H193.75V223ZM193.75 194.102H194.75V192.673L193.407 193.162L193.75 194.102ZM185.008 197.289H184.008V198.718L185.35 198.229L185.008 197.289ZM185.008 193.375L184.654 192.44L184.008 192.684V193.375H185.008ZM197.406 188.688V187.688H197.224L197.053 187.752L197.406 188.688ZM197.086 188.688V223H199.086V188.688H197.086ZM198.086 222H193.75V224H198.086V222ZM194.75 223V194.102H192.75V223H194.75ZM193.407 193.162L184.665 196.35L185.35 198.229L194.093 195.041L193.407 193.162ZM186.008 197.289V193.375H184.008V197.289H186.008ZM185.361 194.31L197.76 189.623L197.053 187.752L184.654 192.44L185.361 194.31ZM197.406 189.688H198.086V187.688H197.406V189.688Z" fill="black" fill-opacity="0.7"/>
<path d="M154 187H130.935L124.016 205.621H129.161L121 226L146.194 201.266H139.984L154 187Z" fill="url(#paint1_linear_5_2)" stroke="black"/>
<path d="M18.7871 69.9307H20.4043C20.3633 70.8096 20.1846 71.5684 19.8682 72.207C19.5576 72.8398 19.1035 73.3262 18.5059 73.666C17.9141 74.0059 17.1729 74.1758 16.2822 74.1758C15.6436 74.1758 15.0664 74.0498 14.5508 73.7979C14.0352 73.5459 13.5928 73.1855 13.2236 72.7168C12.8604 72.2422 12.582 71.6738 12.3887 71.0117C12.1953 70.3496 12.0986 69.6055 12.0986 68.7793V66.415C12.0986 65.5947 12.1953 64.8535 12.3887 64.1914C12.5879 63.5293 12.8721 62.9639 13.2412 62.4951C13.6162 62.0205 14.0703 61.6572 14.6035 61.4053C15.1426 61.1533 15.752 61.0273 16.4316 61.0273C17.2637 61.0273 17.9668 61.1943 18.541 61.5283C19.1211 61.8564 19.5664 62.3398 19.877 62.9785C20.1934 63.6113 20.3691 64.3877 20.4043 65.3076H18.7871C18.7461 64.6338 18.6406 64.0859 18.4707 63.6641C18.3008 63.2363 18.0488 62.9229 17.7148 62.7236C17.3867 62.5186 16.959 62.416 16.4316 62.416C15.9629 62.416 15.5557 62.5098 15.21 62.6973C14.8701 62.8848 14.5889 63.1543 14.3662 63.5059C14.1494 63.8516 13.9854 64.2705 13.874 64.7627C13.7686 65.249 13.7158 65.7939 13.7158 66.3975V68.7793C13.7158 69.3418 13.7598 69.8662 13.8477 70.3525C13.9414 70.8389 14.0879 71.2666 14.2871 71.6357C14.4922 71.999 14.7588 72.2832 15.0869 72.4883C15.415 72.6934 15.8135 72.7959 16.2822 72.7959C16.874 72.7959 17.3428 72.6992 17.6885 72.5059C18.0342 72.3125 18.2891 72.0049 18.4531 71.583C18.623 71.1611 18.7344 70.6104 18.7871 69.9307ZM27.04 72.374V67.2148C27.04 66.8398 26.9814 66.5381 26.8643 66.3096C26.7529 66.0811 26.583 65.9141 26.3545 65.8086C26.1318 65.7031 25.8506 65.6504 25.5107 65.6504C25.1826 65.6504 24.8984 65.7178 24.6582 65.8525C24.4238 65.9873 24.2422 66.166 24.1133 66.3887C23.9902 66.6113 23.9287 66.8574 23.9287 67.127H22.373C22.373 66.7871 22.4463 66.4502 22.5928 66.1162C22.7451 65.7822 22.9619 65.4805 23.2432 65.2109C23.5244 64.9355 23.8613 64.7188 24.2539 64.5605C24.6523 64.3965 25.0977 64.3145 25.5898 64.3145C26.1758 64.3145 26.6943 64.4111 27.1455 64.6045C27.5967 64.792 27.9512 65.0996 28.209 65.5273C28.4668 65.9551 28.5957 66.5234 28.5957 67.2324V71.9258C28.5957 72.2422 28.6191 72.5791 28.666 72.9365C28.7188 73.2939 28.792 73.6016 28.8857 73.8594V74H27.2773C27.2012 73.8125 27.1426 73.5635 27.1016 73.2529C27.0605 72.9365 27.04 72.6436 27.04 72.374ZM27.2861 68.2344L27.3037 69.377H26.2227C25.8535 69.377 25.5166 69.418 25.2119 69.5C24.9131 69.582 24.6553 69.7021 24.4385 69.8604C24.2217 70.0127 24.0547 70.2031 23.9375 70.4316C23.8262 70.6602 23.7705 70.9209 23.7705 71.2139C23.7705 71.5947 23.8232 71.8994 23.9287 72.1279C24.0342 72.3506 24.1924 72.5117 24.4033 72.6113C24.6143 72.7109 24.8809 72.7607 25.2031 72.7607C25.5957 72.7607 25.9414 72.6699 26.2402 72.4883C26.5391 72.3066 26.7705 72.0869 26.9346 71.8291C27.1045 71.5713 27.1836 71.3311 27.1719 71.1084L27.5146 71.8379C27.4912 72.0664 27.415 72.3154 27.2861 72.585C27.1631 72.8486 26.9902 73.1035 26.7676 73.3496C26.5449 73.5898 26.2812 73.7891 25.9766 73.9473C25.6777 74.0996 25.3408 74.1758 24.9658 74.1758C24.415 74.1758 23.9316 74.0703 23.5156 73.8594C23.1055 73.6484 22.7861 73.3379 22.5576 72.9277C22.3291 72.5176 22.2148 72.0107 22.2148 71.4072C22.2148 70.9502 22.2939 70.5283 22.4521 70.1416C22.6104 69.7549 22.8447 69.4209 23.1553 69.1396C23.4658 68.8525 23.8555 68.6299 24.3242 68.4717C24.7988 68.3135 25.3467 68.2344 25.9678 68.2344H27.2861ZM32.5684 66.5205V74H31.0127V64.4902H32.4805L32.5684 66.5205ZM32.1904 68.8848L31.5576 68.8584C31.5518 68.208 31.625 67.6074 31.7773 67.0566C31.9355 66.5 32.1582 66.0166 32.4453 65.6064C32.7383 65.1963 33.0869 64.8799 33.4912 64.6572C33.8955 64.4287 34.3438 64.3145 34.8359 64.3145C35.2227 64.3145 35.5742 64.3789 35.8906 64.5078C36.207 64.6309 36.4766 64.8301 36.6992 65.1055C36.9219 65.3809 37.0918 65.7383 37.209 66.1777C37.332 66.6113 37.3936 67.1416 37.3936 67.7686V74H35.8379V67.751C35.8379 67.2529 35.7822 66.8545 35.6709 66.5557C35.5654 66.251 35.4014 66.0312 35.1787 65.8965C34.9619 65.7559 34.6865 65.6855 34.3525 65.6855C34.0479 65.6855 33.7637 65.7705 33.5 65.9404C33.2363 66.1104 33.0049 66.3447 32.8057 66.6436C32.6123 66.9424 32.46 67.2852 32.3486 67.6719C32.2432 68.0527 32.1904 68.457 32.1904 68.8848ZM44.7148 72.1543V60.5H46.2617V74H44.8467L44.7148 72.1543ZM39.3975 69.7021V68.8145C39.3975 68.0293 39.4736 67.3555 39.626 66.793C39.7783 66.2246 39.9951 65.7588 40.2764 65.3955C40.5576 65.0264 40.8945 64.7539 41.2871 64.5781C41.6797 64.4023 42.1133 64.3145 42.5879 64.3145C43.0801 64.3145 43.502 64.4141 43.8535 64.6133C44.2109 64.8125 44.5098 65.1025 44.75 65.4834C44.9902 65.8584 45.1777 66.3154 45.3125 66.8545C45.4531 67.3877 45.5469 67.9912 45.5938 68.665V69.8516C45.541 70.5195 45.4443 71.1201 45.3037 71.6533C45.1689 72.1865 44.9814 72.6406 44.7412 73.0156C44.501 73.3906 44.2021 73.6777 43.8447 73.877C43.4873 74.0762 43.0625 74.1758 42.5703 74.1758C42.1016 74.1758 41.6738 74.085 41.2871 73.9033C40.9004 73.7158 40.5635 73.4375 40.2764 73.0684C39.9951 72.6934 39.7783 72.2275 39.626 71.6709C39.4736 71.1084 39.3975 70.4521 39.3975 69.7021ZM40.9531 68.8145V69.7021C40.9531 70.2295 40.9912 70.6895 41.0674 71.082C41.1436 71.4688 41.2637 71.791 41.4277 72.0488C41.5918 72.3008 41.7998 72.4883 42.0518 72.6113C42.3096 72.7344 42.6172 72.7959 42.9746 72.7959C43.4082 72.7959 43.7627 72.6904 44.0381 72.4795C44.3135 72.2686 44.5332 71.9902 44.6973 71.6445C44.8672 71.293 45.002 70.915 45.1016 70.5107V68.0146C45.043 67.7158 44.958 67.4287 44.8467 67.1533C44.7354 66.8721 44.5947 66.623 44.4248 66.4062C44.2607 66.1836 44.0586 66.0078 43.8184 65.8789C43.584 65.75 43.3086 65.6855 42.9922 65.6855C42.6348 65.6855 42.3242 65.75 42.0605 65.8789C41.8027 66.0078 41.5918 66.2012 41.4277 66.459C41.2695 66.7168 41.1494 67.042 41.0674 67.4346C40.9912 67.8271 40.9531 68.2871 40.9531 68.8145ZM50.3311 64.4902V74H48.7842V64.4902H50.3311ZM48.6963 61.9678C48.6963 61.7041 48.7695 61.4814 48.916 61.2998C49.0625 61.1182 49.2822 61.0273 49.5752 61.0273C49.8682 61.0273 50.0879 61.1182 50.2344 61.2998C50.3867 61.4814 50.4629 61.7041 50.4629 61.9678C50.4629 62.2197 50.3867 62.4365 50.2344 62.6182C50.0879 62.7939 49.8682 62.8818 49.5752 62.8818C49.2822 62.8818 49.0625 62.7939 48.916 62.6182C48.7695 62.4365 48.6963 62.2197 48.6963 61.9678ZM57.7754 72.1543V60.5H59.3223V74H57.9072L57.7754 72.1543ZM52.458 69.7021V68.8145C52.458 68.0293 52.5342 67.3555 52.6865 66.793C52.8389 66.2246 53.0557 65.7588 53.3369 65.3955C53.6182 65.0264 53.9551 64.7539 54.3477 64.5781C54.7402 64.4023 55.1738 64.3145 55.6484 64.3145C56.1406 64.3145 56.5625 64.4141 56.9141 64.6133C57.2715 64.8125 57.5703 65.1025 57.8105 65.4834C58.0508 65.8584 58.2383 66.3154 58.373 66.8545C58.5137 67.3877 58.6074 67.9912 58.6543 68.665V69.8516C58.6016 70.5195 58.5049 71.1201 58.3643 71.6533C58.2295 72.1865 58.042 72.6406 57.8018 73.0156C57.5615 73.3906 57.2627 73.6777 56.9053 73.877C56.5479 74.0762 56.123 74.1758 55.6309 74.1758C55.1621 74.1758 54.7344 74.085 54.3477 73.9033C53.9609 73.7158 53.624 73.4375 53.3369 73.0684C53.0557 72.6934 52.8389 72.2275 52.6865 71.6709C52.5342 71.1084 52.458 70.4521 52.458 69.7021ZM54.0137 68.8145V69.7021C54.0137 70.2295 54.0518 70.6895 54.1279 71.082C54.2041 71.4688 54.3242 71.791 54.4883 72.0488C54.6523 72.3008 54.8604 72.4883 55.1123 72.6113C55.3701 72.7344 55.6777 72.7959 56.0352 72.7959C56.4688 72.7959 56.8232 72.6904 57.0986 72.4795C57.374 72.2686 57.5938 71.9902 57.7578 71.6445C57.9277 71.293 58.0625 70.915 58.1621 70.5107V68.0146C58.1035 67.7158 58.0186 67.4287 57.9072 67.1533C57.7959 66.8721 57.6553 66.623 57.4854 66.4062C57.3213 66.1836 57.1191 66.0078 56.8789 65.8789C56.6445 65.75 56.3691 65.6855 56.0527 65.6855C55.6953 65.6855 55.3848 65.75 55.1211 65.8789C54.8633 66.0078 54.6523 66.2012 54.4883 66.459C54.3301 66.7168 54.21 67.042 54.1279 67.4346C54.0518 67.8271 54.0137 68.2871 54.0137 68.8145ZM66.3799 72.374V67.2148C66.3799 66.8398 66.3213 66.5381 66.2041 66.3096C66.0928 66.0811 65.9229 65.9141 65.6943 65.8086C65.4717 65.7031 65.1904 65.6504 64.8506 65.6504C64.5225 65.6504 64.2383 65.7178 63.998 65.8525C63.7637 65.9873 63.582 66.166 63.4531 66.3887C63.3301 66.6113 63.2686 66.8574 63.2686 67.127H61.7129C61.7129 66.7871 61.7861 66.4502 61.9326 66.1162C62.085 65.7822 62.3018 65.4805 62.583 65.2109C62.8643 64.9355 63.2012 64.7188 63.5938 64.5605C63.9922 64.3965 64.4375 64.3145 64.9297 64.3145C65.5156 64.3145 66.0342 64.4111 66.4854 64.6045C66.9365 64.792 67.291 65.0996 67.5488 65.5273C67.8066 65.9551 67.9355 66.5234 67.9355 67.2324V71.9258C67.9355 72.2422 67.959 72.5791 68.0059 72.9365C68.0586 73.2939 68.1318 73.6016 68.2256 73.8594V74H66.6172C66.541 73.8125 66.4824 73.5635 66.4414 73.2529C66.4004 72.9365 66.3799 72.6436 66.3799 72.374ZM66.626 68.2344L66.6436 69.377H65.5625C65.1934 69.377 64.8564 69.418 64.5518 69.5C64.2529 69.582 63.9951 69.7021 63.7783 69.8604C63.5615 70.0127 63.3945 70.2031 63.2773 70.4316C63.166 70.6602 63.1104 70.9209 63.1104 71.2139C63.1104 71.5947 63.1631 71.8994 63.2686 72.1279C63.374 72.3506 63.5322 72.5117 63.7432 72.6113C63.9541 72.7109 64.2207 72.7607 64.543 72.7607C64.9355 72.7607 65.2812 72.6699 65.5801 72.4883C65.8789 72.3066 66.1104 72.0869 66.2744 71.8291C66.4443 71.5713 66.5234 71.3311 66.5117 71.1084L66.8545 71.8379C66.8311 72.0664 66.7549 72.3154 66.626 72.585C66.5029 72.8486 66.3301 73.1035 66.1074 73.3496C65.8848 73.5898 65.6211 73.7891 65.3164 73.9473C65.0176 74.0996 64.6807 74.1758 64.3057 74.1758C63.7549 74.1758 63.2715 74.0703 62.8555 73.8594C62.4453 73.6484 62.126 73.3379 61.8975 72.9277C61.6689 72.5176 61.5547 72.0107 61.5547 71.4072C61.5547 70.9502 61.6338 70.5283 61.792 70.1416C61.9502 69.7549 62.1846 69.4209 62.4951 69.1396C62.8057 68.8525 63.1953 68.6299 63.6641 68.4717C64.1387 68.3135 64.6865 68.2344 65.3076 68.2344H66.626ZM73.8242 64.4902V65.7383H69.3857V64.4902H73.8242ZM70.8359 62.1787H72.3916V71.6445C72.3916 71.9668 72.4297 72.21 72.5059 72.374C72.5879 72.5381 72.6904 72.6465 72.8135 72.6992C72.9365 72.752 73.0684 72.7783 73.209 72.7783C73.3145 72.7783 73.4316 72.7666 73.5605 72.7432C73.6895 72.7139 73.7773 72.6904 73.8242 72.6729L73.8154 74C73.71 74.041 73.5693 74.0791 73.3936 74.1143C73.2178 74.1553 72.9951 74.1758 72.7256 74.1758C72.3916 74.1758 72.0811 74.0967 71.7939 73.9385C71.5068 73.7803 71.2754 73.5166 71.0996 73.1475C70.9238 72.7725 70.8359 72.2686 70.8359 71.6357V62.1787ZM79.0801 74.1758C78.5117 74.1758 77.999 74.0908 77.542 73.9209C77.085 73.751 76.6953 73.4932 76.373 73.1475C76.0508 72.7959 75.8047 72.3535 75.6348 71.8203C75.4648 71.2871 75.3799 70.6572 75.3799 69.9307V68.8584C75.3799 68.0205 75.4766 67.3115 75.6699 66.7314C75.8691 66.1514 76.1357 65.6855 76.4697 65.334C76.8037 64.9766 77.1816 64.7188 77.6035 64.5605C78.0254 64.3965 78.459 64.3145 78.9043 64.3145C79.502 64.3145 80.0117 64.4111 80.4336 64.6045C80.8555 64.7979 81.1982 65.085 81.4619 65.4658C81.7256 65.8467 81.9189 66.3154 82.042 66.8721C82.1709 67.4287 82.2354 68.0703 82.2354 68.7969V69.7021H76.2939V68.375H80.6797V68.1553C80.6562 67.6631 80.5889 67.2295 80.4775 66.8545C80.3721 66.4795 80.1963 66.1865 79.9502 65.9756C79.7041 65.7588 79.3555 65.6504 78.9043 65.6504C78.6172 65.6504 78.3506 65.7002 78.1045 65.7998C77.8643 65.8936 77.6562 66.0605 77.4805 66.3008C77.3105 66.5352 77.1758 66.8604 77.0762 67.2764C76.9824 67.6924 76.9355 68.2197 76.9355 68.8584V69.9307C76.9355 70.4404 76.9824 70.8799 77.0762 71.249C77.1758 71.6123 77.3193 71.9141 77.5068 72.1543C77.7002 72.3887 77.9346 72.5645 78.21 72.6816C78.4912 72.793 78.8105 72.8486 79.168 72.8486C79.6895 72.8486 80.1201 72.749 80.46 72.5498C80.7998 72.3447 81.0957 72.084 81.3477 71.7676L82.165 72.7432C81.9951 72.9834 81.7725 73.2148 81.4971 73.4375C81.2275 73.6543 80.8936 73.833 80.4951 73.9736C80.1025 74.1084 79.6309 74.1758 79.0801 74.1758Z" fill="black"/>
<rect x="103" y="33" width="484" height="69" rx="24" fill="#D9D9D9" stroke="black" stroke-width="2"/>
<line x1="164.5" y1="32" x2="164.5" y2="103" stroke="black"/>
<line x1="225.5" y1="32" x2="225.5" y2="103" stroke="black"/>
<path d="M286 32L286 103" stroke="black"/>
<line x1="347.5" y1="32" x2="347.5" y2="103" stroke="black"/>
<line x1="408.5" y1="32" x2="408.5" y2="103" stroke="black"/>
<path d="M469 32L469 103" stroke="black"/>
<path d="M530 32L530 103" stroke="black"/>
<path d="M480.506 67.0167C480.772 56.7452 489.181 48.5 499.517 48.5C509.852 48.5 518.262 56.7452 518.527 67.0167H480.506Z" fill="#FF0000" stroke="black"/>
<path d="M518.528 68.0176C518.283 78.2896 509.889 86.5513 499.554 86.5716C489.219 86.5919 480.793 78.3633 480.507 68.0923L518.528 68.0176Z" fill="white" stroke="black"/>
<mask id="path-37-outside-3_5_2" maskUnits="userSpaceOnUse" x="480.349" y="62.7286" width="39" height="10" fill="black">
<rect fill="white" x="480.349" y="62.7286" width="39" height="10"/>
<path d="M502.305 67.5167C502.305 69.0565 501.056 70.3048 499.517 70.3048C497.977 70.3048 496.729 69.0565 496.729 67.5167C496.729 65.9768 497.977 64.7286 499.517 64.7286C501.056 64.7286 502.305 65.9768 502.305 67.5167Z"/>
</mask>
<path d="M502.305 67.5167C502.305 69.0565 501.056 70.3048 499.517 70.3048C497.977 70.3048 496.729 69.0565 496.729 67.5167C496.729 65.9768 497.977 64.7286 499.517 64.7286C501.056 64.7286 502.305 65.9768 502.305 67.5167Z" fill="white"/>
<path d="M480.349 68.5167H497.077V66.5167H480.349V68.5167ZM501.956 68.5167H518.685V66.5167H501.956V68.5167ZM500.305 67.5167C500.305 67.9519 499.952 68.3048 499.517 68.3048V72.3048C502.161 72.3048 504.305 70.1611 504.305 67.5167H500.305ZM499.517 68.3048C499.081 68.3048 498.729 67.9519 498.729 67.5167H494.729C494.729 70.1611 496.872 72.3048 499.517 72.3048V68.3048ZM498.729 67.5167C498.729 67.0814 499.081 66.7286 499.517 66.7286V62.7286C496.872 62.7286 494.729 64.8723 494.729 67.5167H498.729ZM499.517 66.7286C499.952 66.7286 500.305 67.0814 500.305 67.5167H504.305C504.305 64.8723 502.161 62.7286 499.517 62.7286V66.7286Z" fill="black" mask="url(#path-37-outside-3_5_2)"/>
<path d="M557.146 71.9757L545.829 83.2929L541.707 79.1707L553.024 67.8536L553.378 67.5L553.024 67.1464L541.707 55.8293L545.829 51.7071L557.146 63.0243L557.5 63.3778L557.854 63.0243L569.171 51.7071L573.293 55.8293L561.976 67.1464L561.622 67.5L561.976 67.8536L573.293 79.1707L569.171 83.2929L557.854 71.9757L557.5 71.6222L557.146 71.9757Z" fill="#D63232" stroke="black"/>
<rect x="477" y="9" width="101" height="222" rx="10" stroke="#50358A" stroke-width="3"/>
<path d="M507.89 15.2031H509.454L512.803 25.6357L516.143 15.2031H517.707L513.409 28H512.179L507.89 15.2031ZM507.38 15.2031H508.751L508.988 23.0078V28H507.38V15.2031ZM516.837 15.2031H518.208V28H516.6V23.0078L516.837 15.2031ZM529.309 20.4941V22.7178C529.309 23.6201 529.209 24.4141 529.01 25.0996C528.816 25.7793 528.532 26.3477 528.157 26.8047C527.782 27.2617 527.331 27.6045 526.804 27.833C526.276 28.0615 525.682 28.1758 525.02 28.1758C524.381 28.1758 523.798 28.0615 523.271 27.833C522.743 27.6045 522.289 27.2617 521.908 26.8047C521.527 26.3477 521.231 25.7793 521.021 25.0996C520.815 24.4141 520.713 23.6201 520.713 22.7178V20.4941C520.713 19.5918 520.815 18.8008 521.021 18.1211C521.226 17.4355 521.519 16.8643 521.899 16.4072C522.28 15.9502 522.734 15.6074 523.262 15.3789C523.789 15.1445 524.372 15.0273 525.011 15.0273C525.673 15.0273 526.268 15.1445 526.795 15.3789C527.328 15.6074 527.779 15.9502 528.148 16.4072C528.523 16.8643 528.811 17.4355 529.01 18.1211C529.209 18.8008 529.309 19.5918 529.309 20.4941ZM527.709 22.7178V20.4766C527.709 19.7734 527.65 19.1699 527.533 18.666C527.416 18.1562 527.243 17.7402 527.015 17.418C526.786 17.0957 526.505 16.8584 526.171 16.7061C525.837 16.5479 525.45 16.4688 525.011 16.4688C524.595 16.4688 524.22 16.5479 523.886 16.7061C523.558 16.8584 523.276 17.0957 523.042 17.418C522.808 17.7402 522.626 18.1562 522.497 18.666C522.374 19.1699 522.312 19.7734 522.312 20.4766V22.7178C522.312 23.4268 522.374 24.0361 522.497 24.5459C522.626 25.0498 522.808 25.4658 523.042 25.7939C523.282 26.1162 523.569 26.3564 523.903 26.5146C524.237 26.667 524.609 26.7432 525.02 26.7432C525.459 26.7432 525.846 26.667 526.18 26.5146C526.52 26.3564 526.801 26.1162 527.023 25.7939C527.252 25.4658 527.422 25.0498 527.533 24.5459C527.65 24.0361 527.709 23.4268 527.709 22.7178ZM540.181 15.2031V28H538.555L533.431 18.1299V28H531.813V15.2031H533.431L538.581 25.0996V15.2031H540.181ZM553.909 26.6641V28H546.755V26.8311L550.279 22.1641C550.713 21.5898 551.044 21.1035 551.272 20.7051C551.501 20.3008 551.659 19.9404 551.747 19.624C551.835 19.3018 551.879 18.9736 551.879 18.6396C551.879 18.2178 551.812 17.8369 551.677 17.4971C551.542 17.1514 551.346 16.876 551.088 16.6709C550.83 16.4658 550.52 16.3633 550.156 16.3633C549.682 16.3633 549.292 16.4746 548.987 16.6973C548.688 16.9141 548.469 17.2188 548.328 17.6113C548.188 18.0039 548.117 18.4551 548.117 18.9648H546.562C546.562 18.2441 546.693 17.585 546.957 16.9873C547.227 16.3896 547.628 15.915 548.161 15.5635C548.694 15.2061 549.359 15.0273 550.156 15.0273C550.842 15.0273 551.428 15.1709 551.914 15.458C552.406 15.7393 552.781 16.1377 553.039 16.6533C553.303 17.1631 553.435 17.7607 553.435 18.4463C553.435 18.8213 553.382 19.2021 553.276 19.5889C553.177 19.9697 553.036 20.3506 552.854 20.7314C552.679 21.1123 552.471 21.4873 552.23 21.8564C551.99 22.2256 551.732 22.5889 551.457 22.9463L548.618 26.6641H553.909Z" fill="black"/>
<path d="M395 48H371.935L365.016 66.6208H370.161L362 87L387.194 62.2662H380.984L395 48Z" fill="url(#paint2_linear_5_2)" stroke="black"/>
<path d="M431.328 67.7109V71.2734H419.891V67.7109H431.328ZM457.461 80.4375V84H435.125V80.8828L446.305 68.4375C447.68 66.9062 448.742 65.6094 449.492 64.5469C450.258 63.4688 450.789 62.5078 451.086 61.6641C451.398 60.8047 451.555 59.9297 451.555 59.0391C451.555 57.9141 451.32 56.8984 450.852 55.9922C450.398 55.0703 449.727 54.3359 448.836 53.7891C447.945 53.2422 446.867 52.9688 445.602 52.9688C444.086 52.9688 442.82 53.2656 441.805 53.8594C440.805 54.4375 440.055 55.25 439.555 56.2969C439.055 57.3438 438.805 58.5469 438.805 59.9062H434.469C434.469 57.9844 434.891 56.2266 435.734 54.6328C436.578 53.0391 437.828 51.7734 439.484 50.8359C441.141 49.8828 443.18 49.4062 445.602 49.4062C447.758 49.4062 449.602 49.7891 451.133 50.5547C452.664 51.3047 453.836 52.3672 454.648 53.7422C455.477 55.1016 455.891 56.6953 455.891 58.5234C455.891 59.5234 455.719 60.5391 455.375 61.5703C455.047 62.5859 454.586 63.6016 453.992 64.6172C453.414 65.6328 452.734 66.6328 451.953 67.6172C451.188 68.6016 450.367 69.5703 449.492 70.5234L440.352 80.4375H457.461Z" fill="#69CB20" fill-opacity="0.7"/>
<path d="M431.328 67.7109H432.328V66.7109H431.328V67.7109ZM431.328 71.2734V72.2734H432.328V71.2734H431.328ZM419.891 71.2734H418.891V72.2734H419.891V71.2734ZM419.891 67.7109V66.7109H418.891V67.7109H419.891ZM430.328 67.7109V71.2734H432.328V67.7109H430.328ZM431.328 70.2734H419.891V72.2734H431.328V70.2734ZM420.891 71.2734V67.7109H418.891V71.2734H420.891ZM419.891 68.7109H431.328V66.7109H419.891V68.7109ZM457.461 80.4375H458.461V79.4375H457.461V80.4375ZM457.461 84V85H458.461V84H457.461ZM435.125 84H434.125V85H435.125V84ZM435.125 80.8828L434.381 80.2145L434.125 80.4996V80.8828H435.125ZM446.305 68.4375L447.049 69.1058L447.049 69.1056L446.305 68.4375ZM449.492 64.5469L448.677 63.9679L448.675 63.9702L449.492 64.5469ZM451.086 61.6641L450.146 61.3223L450.143 61.3322L451.086 61.6641ZM450.852 55.9922L449.954 56.4333L449.959 56.4425L449.963 56.4516L450.852 55.9922ZM441.805 53.8594L442.305 54.7251L442.309 54.7227L441.805 53.8594ZM438.805 59.9062V60.9062H439.805V59.9062H438.805ZM434.469 59.9062H433.469V60.9062H434.469V59.9062ZM439.484 50.8359L439.977 51.7062L439.983 51.7027L439.484 50.8359ZM451.133 50.5547L450.686 51.4491L450.693 51.4528L451.133 50.5547ZM454.648 53.7422L453.787 54.251L453.794 54.2624L454.648 53.7422ZM455.375 61.5703L454.426 61.2541L454.423 61.2629L455.375 61.5703ZM453.992 64.6172L453.129 64.1125L453.123 64.1225L453.992 64.6172ZM451.953 67.6172L451.17 66.9955L451.164 67.0032L451.953 67.6172ZM449.492 70.5234L450.227 71.2013L450.229 71.1997L449.492 70.5234ZM440.352 80.4375L439.616 79.7597L438.069 81.4375H440.352V80.4375ZM456.461 80.4375V84H458.461V80.4375H456.461ZM457.461 83H435.125V85H457.461V83ZM436.125 84V80.8828H434.125V84H436.125ZM435.869 81.5511L447.049 69.1058L445.561 67.7692L434.381 80.2145L435.869 81.5511ZM447.049 69.1056C448.437 67.56 449.528 66.2307 450.309 65.1236L448.675 63.9702C447.957 64.988 446.923 66.2525 445.561 67.7694L447.049 69.1056ZM450.308 65.1259C451.104 64.0044 451.69 62.9588 452.029 61.996L450.143 61.3322C449.888 62.0569 449.412 62.9331 448.677 63.9679L450.308 65.1259ZM452.026 62.0058C452.377 61.0399 452.555 60.0494 452.555 59.0391H450.555C450.555 59.81 450.42 60.5695 450.146 61.3223L452.026 62.0058ZM452.555 59.0391C452.555 57.7709 452.289 56.5951 451.74 55.5328L449.963 56.4516C450.351 57.2017 450.555 58.0572 450.555 59.0391H452.555ZM451.749 55.5511C451.211 54.4565 450.408 53.5808 449.359 52.9369L448.313 54.6412C449.045 55.091 449.586 55.6842 449.954 56.4333L451.749 55.5511ZM449.359 52.9369C448.281 52.2747 447.013 51.9688 445.602 51.9688V53.9688C446.722 53.9688 447.61 54.2096 448.313 54.6412L449.359 52.9369ZM445.602 51.9688C443.959 51.9688 442.507 52.2905 441.3 52.9961L442.309 54.7227C443.134 54.2407 444.213 53.9688 445.602 53.9688V51.9688ZM441.304 52.9936C440.129 53.6733 439.239 54.6377 438.652 55.8659L440.457 56.7279C440.87 55.8623 441.481 55.2017 442.305 54.7251L441.304 52.9936ZM438.652 55.8659C438.078 57.0686 437.805 58.4232 437.805 59.9062H439.805C439.805 58.6706 440.031 57.6189 440.457 56.7279L438.652 55.8659ZM438.805 58.9062H434.469V60.9062H438.805V58.9062ZM435.469 59.9062C435.469 58.1364 435.856 56.5409 436.618 55.1007L434.851 54.1649C433.926 55.9123 433.469 57.8323 433.469 59.9062H435.469ZM436.618 55.1007C437.368 53.6852 438.477 52.5551 439.977 51.7062L438.992 49.9657C437.179 50.9918 435.789 52.3929 434.851 54.1649L436.618 55.1007ZM439.983 51.7027C441.452 50.8573 443.309 50.4062 445.602 50.4062V48.4062C443.051 48.4062 440.829 48.9084 438.986 49.9692L439.983 51.7027ZM445.602 50.4062C447.642 50.4062 449.325 50.7686 450.686 51.4491L451.58 49.6603C449.879 48.8096 447.874 48.4062 445.602 48.4062V50.4062ZM450.693 51.4528C452.061 52.123 453.081 53.0555 453.788 54.2509L455.509 53.2335C454.591 51.6788 453.267 50.4864 451.573 49.6566L450.693 51.4528ZM453.794 54.2624C454.514 55.4429 454.891 56.8511 454.891 58.5234H456.891C456.891 56.5396 456.44 54.7602 455.502 53.2219L453.794 54.2624ZM454.891 58.5234C454.891 59.407 454.739 60.3159 454.426 61.2541L456.324 61.8865C456.698 60.7622 456.891 59.6399 456.891 58.5234H454.891ZM454.423 61.2629C454.12 62.2032 453.69 63.153 453.129 64.1125L454.855 65.1219C455.482 64.0502 455.974 62.9687 456.327 61.8777L454.423 61.2629ZM453.123 64.1225C452.572 65.0905 451.922 66.0482 451.17 66.9955L452.736 68.2388C453.547 67.2174 454.256 66.1751 454.861 65.1119L453.123 64.1225ZM451.164 67.0032C450.415 67.9654 449.613 68.9133 448.756 69.8472L450.229 71.1997C451.122 70.2273 451.96 69.2378 452.742 68.2311L451.164 67.0032ZM448.757 69.8456L439.616 79.7597L441.087 81.1153L450.227 71.2013L448.757 69.8456ZM440.352 81.4375H457.461V79.4375H440.352V81.4375Z" fill="black" fill-opacity="0.7"/>
<rect x="356" y="9" width="107" height="222" rx="10" stroke="#50358A" stroke-width="3"/>
<path d="M386.89 15.2031H388.454L391.803 25.6357L395.143 15.2031H396.707L392.409 28H391.179L386.89 15.2031ZM386.38 15.2031H387.751L387.988 23.0078V28H386.38V15.2031ZM395.837 15.2031H397.208V28H395.6V23.0078L395.837 15.2031ZM408.309 20.4941V22.7178C408.309 23.6201 408.209 24.4141 408.01 25.0996C407.816 25.7793 407.532 26.3477 407.157 26.8047C406.782 27.2617 406.331 27.6045 405.804 27.833C405.276 28.0615 404.682 28.1758 404.02 28.1758C403.381 28.1758 402.798 28.0615 402.271 27.833C401.743 27.6045 401.289 27.2617 400.908 26.8047C400.527 26.3477 400.231 25.7793 400.021 25.0996C399.815 24.4141 399.713 23.6201 399.713 22.7178V20.4941C399.713 19.5918 399.815 18.8008 400.021 18.1211C400.226 17.4355 400.519 16.8643 400.899 16.4072C401.28 15.9502 401.734 15.6074 402.262 15.3789C402.789 15.1445 403.372 15.0273 404.011 15.0273C404.673 15.0273 405.268 15.1445 405.795 15.3789C406.328 15.6074 406.779 15.9502 407.148 16.4072C407.523 16.8643 407.811 17.4355 408.01 18.1211C408.209 18.8008 408.309 19.5918 408.309 20.4941ZM406.709 22.7178V20.4766C406.709 19.7734 406.65 19.1699 406.533 18.666C406.416 18.1562 406.243 17.7402 406.015 17.418C405.786 17.0957 405.505 16.8584 405.171 16.7061C404.837 16.5479 404.45 16.4688 404.011 16.4688C403.595 16.4688 403.22 16.5479 402.886 16.7061C402.558 16.8584 402.276 17.0957 402.042 17.418C401.808 17.7402 401.626 18.1562 401.497 18.666C401.374 19.1699 401.312 19.7734 401.312 20.4766V22.7178C401.312 23.4268 401.374 24.0361 401.497 24.5459C401.626 25.0498 401.808 25.4658 402.042 25.7939C402.282 26.1162 402.569 26.3564 402.903 26.5146C403.237 26.667 403.609 26.7432 404.02 26.7432C404.459 26.7432 404.846 26.667 405.18 26.5146C405.52 26.3564 405.801 26.1162 406.023 25.7939C406.252 25.4658 406.422 25.0498 406.533 24.5459C406.65 24.0361 406.709 23.4268 406.709 22.7178ZM419.181 15.2031V28H417.555L412.431 18.1299V28H410.813V15.2031H412.431L417.581 25.0996V15.2031H419.181ZM430.387 15.1328V28H428.831V17.1631L426.142 18.3584V16.8906L430.149 15.1328H430.387Z" fill="black"/>
<path d="M309.328 67.7109V71.2734H297.891V67.7109H309.328ZM327.352 49.6875V84H323.016V55.1016L314.273 58.2891V54.375L326.672 49.6875H327.352Z" fill="#69CB20" fill-opacity="0.7"/>
<path d="M309.328 67.7109H310.328V66.7109H309.328V67.7109ZM309.328 71.2734V72.2734H310.328V71.2734H309.328ZM297.891 71.2734H296.891V72.2734H297.891V71.2734ZM297.891 67.7109V66.7109H296.891V67.7109H297.891ZM308.328 67.7109V71.2734H310.328V67.7109H308.328ZM309.328 70.2734H297.891V72.2734H309.328V70.2734ZM298.891 71.2734V67.7109H296.891V71.2734H298.891ZM297.891 68.7109H309.328V66.7109H297.891V68.7109ZM327.352 49.6875H328.352V48.6875H327.352V49.6875ZM327.352 84V85H328.352V84H327.352ZM323.016 84H322.016V85H323.016V84ZM323.016 55.1016H324.016V53.6726L322.673 54.1621L323.016 55.1016ZM314.273 58.2891H313.273V59.7181L314.616 59.2286L314.273 58.2891ZM314.273 54.375L313.92 53.4396L313.273 53.684V54.375H314.273ZM326.672 49.6875V48.6875H326.489L326.318 48.7521L326.672 49.6875ZM326.352 49.6875V84H328.352V49.6875H326.352ZM327.352 83H323.016V85H327.352V83ZM324.016 84V55.1016H322.016V84H324.016ZM322.673 54.1621L313.931 57.3496L314.616 59.2286L323.358 56.0411L322.673 54.1621ZM315.273 58.2891V54.375H313.273V58.2891H315.273ZM314.627 55.3104L327.026 50.6229L326.318 48.7521L313.92 53.4396L314.627 55.3104ZM326.672 50.6875H327.352V48.6875H326.672V50.6875Z" fill="black" fill-opacity="0.7"/>
<path d="M245.748 77.2177C246.698 82.6634 251.805 86.3219 257.155 85.3891C261.714 84.5943 264.225 80.6808 265.257 76.2239C267.763 65.4041 263.651 47.7094 259.473 45.9493C263.616 48.1526 261.294 54.465 257.146 59.7233C253.41 64.4605 248.081 67.0702 246.466 71.3624L246.185 72.0616C245.613 73.6556 245.435 75.4217 245.748 77.2177Z" fill="url(#paint3_linear_5_2)" stroke="black"/>
<rect x="236" y="9" width="101" height="222" rx="10" stroke="#50358A" stroke-width="3"/>
<path d="M260.89 15.2031H262.454L265.803 25.6357L269.143 15.2031H270.707L266.409 28H265.179L260.89 15.2031ZM260.38 15.2031H261.751L261.988 23.0078V28H260.38V15.2031ZM269.837 15.2031H271.208V28H269.6V23.0078L269.837 15.2031ZM282.309 20.4941V22.7178C282.309 23.6201 282.209 24.4141 282.01 25.0996C281.816 25.7793 281.532 26.3477 281.157 26.8047C280.782 27.2617 280.331 27.6045 279.804 27.833C279.276 28.0615 278.682 28.1758 278.02 28.1758C277.381 28.1758 276.798 28.0615 276.271 27.833C275.743 27.6045 275.289 27.2617 274.908 26.8047C274.527 26.3477 274.231 25.7793 274.021 25.0996C273.815 24.4141 273.713 23.6201 273.713 22.7178V20.4941C273.713 19.5918 273.815 18.8008 274.021 18.1211C274.226 17.4355 274.519 16.8643 274.899 16.4072C275.28 15.9502 275.734 15.6074 276.262 15.3789C276.789 15.1445 277.372 15.0273 278.011 15.0273C278.673 15.0273 279.268 15.1445 279.795 15.3789C280.328 15.6074 280.779 15.9502 281.148 16.4072C281.523 16.8643 281.811 17.4355 282.01 18.1211C282.209 18.8008 282.309 19.5918 282.309 20.4941ZM280.709 22.7178V20.4766C280.709 19.7734 280.65 19.1699 280.533 18.666C280.416 18.1562 280.243 17.7402 280.015 17.418C279.786 17.0957 279.505 16.8584 279.171 16.7061C278.837 16.5479 278.45 16.4688 278.011 16.4688C277.595 16.4688 277.22 16.5479 276.886 16.7061C276.558 16.8584 276.276 17.0957 276.042 17.418C275.808 17.7402 275.626 18.1562 275.497 18.666C275.374 19.1699 275.312 19.7734 275.312 20.4766V22.7178C275.312 23.4268 275.374 24.0361 275.497 24.5459C275.626 25.0498 275.808 25.4658 276.042 25.7939C276.282 26.1162 276.569 26.3564 276.903 26.5146C277.237 26.667 277.609 26.7432 278.02 26.7432C278.459 26.7432 278.846 26.667 279.18 26.5146C279.52 26.3564 279.801 26.1162 280.023 25.7939C280.252 25.4658 280.422 25.0498 280.533 24.5459C280.65 24.0361 280.709 23.4268 280.709 22.7178ZM293.181 15.2031V28H291.555L286.431 18.1299V28H284.813V15.2031H286.431L291.581 25.0996V15.2031H293.181ZM302.778 21.8916V23.2275H299.148V21.8916H302.778ZM311.374 26.6641V28H304.22V26.8311L307.744 22.1641C308.178 21.5898 308.509 21.1035 308.737 20.7051C308.966 20.3008 309.124 19.9404 309.212 19.624C309.3 19.3018 309.344 18.9736 309.344 18.6396C309.344 18.2178 309.276 17.8369 309.142 17.4971C309.007 17.1514 308.811 16.876 308.553 16.6709C308.295 16.4658 307.984 16.3633 307.621 16.3633C307.146 16.3633 306.757 16.4746 306.452 16.6973C306.153 16.9141 305.934 17.2188 305.793 17.6113C305.652 18.0039 305.582 18.4551 305.582 18.9648H304.026C304.026 18.2441 304.158 17.585 304.422 16.9873C304.691 16.3896 305.093 15.915 305.626 15.5635C306.159 15.2061 306.824 15.0273 307.621 15.0273C308.307 15.0273 308.893 15.1709 309.379 15.458C309.871 15.7393 310.246 16.1377 310.504 16.6533C310.768 17.1631 310.899 17.7607 310.899 18.4463C310.899 18.8213 310.847 19.2021 310.741 19.5889C310.642 19.9697 310.501 20.3506 310.319 20.7314C310.144 21.1123 309.936 21.4873 309.695 21.8564C309.455 22.2256 309.197 22.5889 308.922 22.9463L306.083 26.6641H311.374Z" fill="black"/>
<path d="M198.086 49.6875V84H193.75V55.1016L185.008 58.2891V54.375L197.406 49.6875H198.086Z" fill="#E95A47" fill-opacity="0.7"/>
<path d="M198.086 49.6875H199.086V48.6875H198.086V49.6875ZM198.086 84V85H199.086V84H198.086ZM193.75 84H192.75V85H193.75V84ZM193.75 55.1016H194.75V53.6726L193.407 54.1621L193.75 55.1016ZM185.008 58.2891H184.008V59.7181L185.35 59.2286L185.008 58.2891ZM185.008 54.375L184.654 53.4396L184.008 53.684V54.375H185.008ZM197.406 49.6875V48.6875H197.224L197.053 48.7521L197.406 49.6875ZM197.086 49.6875V84H199.086V49.6875H197.086ZM198.086 83H193.75V85H198.086V83ZM194.75 84V55.1016H192.75V84H194.75ZM193.407 54.1621L184.665 57.3496L185.35 59.2286L194.093 56.0411L193.407 54.1621ZM186.008 58.2891V54.375H184.008V58.2891H186.008ZM185.361 55.3104L197.76 50.6229L197.053 48.7521L184.654 53.4396L185.361 55.3104ZM197.406 50.6875H198.086V48.6875H197.406V50.6875Z" fill="black" fill-opacity="0.7"/>
<path d="M154 48H130.935L124.016 66.6208H129.161L121 87L146.194 62.2662H139.984L154 48Z" fill="url(#paint4_linear_5_2)" stroke="black"/>
<rect x="113" y="9" width="101" height="222" rx="10" stroke="#50358A" stroke-width="3"/>
<path d="M140.89 15.2031H142.454L145.803 25.6357L149.143 15.2031H150.707L146.409 28H145.179L140.89 15.2031ZM140.38 15.2031H141.751L141.988 23.0078V28H140.38V15.2031ZM149.837 15.2031H151.208V28H149.6V23.0078L149.837 15.2031ZM162.309 20.4941V22.7178C162.309 23.6201 162.209 24.4141 162.01 25.0996C161.816 25.7793 161.532 26.3477 161.157 26.8047C160.782 27.2617 160.331 27.6045 159.804 27.833C159.276 28.0615 158.682 28.1758 158.02 28.1758C157.381 28.1758 156.798 28.0615 156.271 27.833C155.743 27.6045 155.289 27.2617 154.908 26.8047C154.527 26.3477 154.231 25.7793 154.021 25.0996C153.815 24.4141 153.713 23.6201 153.713 22.7178V20.4941C153.713 19.5918 153.815 18.8008 154.021 18.1211C154.226 17.4355 154.519 16.8643 154.899 16.4072C155.28 15.9502 155.734 15.6074 156.262 15.3789C156.789 15.1445 157.372 15.0273 158.011 15.0273C158.673 15.0273 159.268 15.1445 159.795 15.3789C160.328 15.6074 160.779 15.9502 161.148 16.4072C161.523 16.8643 161.811 17.4355 162.01 18.1211C162.209 18.8008 162.309 19.5918 162.309 20.4941ZM160.709 22.7178V20.4766C160.709 19.7734 160.65 19.1699 160.533 18.666C160.416 18.1562 160.243 17.7402 160.015 17.418C159.786 17.0957 159.505 16.8584 159.171 16.7061C158.837 16.5479 158.45 16.4688 158.011 16.4688C157.595 16.4688 157.22 16.5479 156.886 16.7061C156.558 16.8584 156.276 17.0957 156.042 17.418C155.808 17.7402 155.626 18.1562 155.497 18.666C155.374 19.1699 155.312 19.7734 155.312 20.4766V22.7178C155.312 23.4268 155.374 24.0361 155.497 24.5459C155.626 25.0498 155.808 25.4658 156.042 25.7939C156.282 26.1162 156.569 26.3564 156.903 26.5146C157.237 26.667 157.609 26.7432 158.02 26.7432C158.459 26.7432 158.846 26.667 159.18 26.5146C159.52 26.3564 159.801 26.1162 160.023 25.7939C160.252 25.4658 160.422 25.0498 160.533 24.5459C160.65 24.0361 160.709 23.4268 160.709 22.7178ZM173.181 15.2031V28H171.555L166.431 18.1299V28H164.813V15.2031H166.431L171.581 25.0996V15.2031H173.181ZM182.778 21.8916V23.2275H179.148V21.8916H182.778ZM188.852 15.1328V28H187.296V17.1631L184.606 18.3584V16.8906L188.614 15.1328H188.852Z" fill="black"/>
<path fill-rule="evenodd" clip-rule="evenodd" d="M285.5 34H226V101H285.5L285.5 34Z" fill="#D22121" fill-opacity="0.6"/>
<path fill-rule="evenodd" clip-rule="evenodd" d="M468.5 34H409V101H468.5L468.5 34Z" fill="#D22121" fill-opacity="0.6"/>
<path d="M256 165L264.66 150L247.34 150L256 165ZM254.5 109L254.5 151.5L257.5 151.5L257.5 109L254.5 109Z" fill="#D21B1B"/>
<path d="M439 165L447.66 150L430.34 150L439 165ZM437.5 109L437.5 151.5L440.5 151.5L440.5 109L437.5 109Z" fill="#D21B1B"/>
<path d="M316.5 140L317.5 140L317.5 139L316.5 139L316.5 140ZM316.5 165L322.274 155L310.727 155L316.5 165ZM257.5 141L316.5 141L316.5 139L257.5 139L257.5 141ZM315.5 140L315.5 156L317.5 156L317.5 140L315.5 140Z" fill="#D21B1B" fill-opacity="0.7"/>
<defs>
<linearGradient id="paint0_linear_5_2" x1="378.677" y1="187" x2="378.495" y2="226" gradientUnits="userSpaceOnUse">
<stop stop-color="#FFE600"/>
<stop offset="0.5" stop-color="#FEC600" stop-opacity="0.92"/>
<stop offset="1" stop-color="#FF6B00"/>
</linearGradient>
<linearGradient id="paint1_linear_5_2" x1="137.677" y1="187" x2="137.495" y2="226" gradientUnits="userSpaceOnUse">
<stop stop-color="#FFE600"/>
<stop offset="0.5" stop-color="#FEC600" stop-opacity="0.92"/>
<stop offset="1" stop-color="#FF6B00"/>
</linearGradient>
<linearGradient id="paint2_linear_5_2" x1="378.677" y1="48" x2="378.495" y2="87" gradientUnits="userSpaceOnUse">
<stop stop-color="#FFE600"/>
<stop offset="0.5" stop-color="#FEC600" stop-opacity="0.92"/>
<stop offset="1" stop-color="#FF6B00"/>
</linearGradient>
<linearGradient id="paint3_linear_5_2" x1="251.807" y1="47.2857" x2="258.412" y2="85.17" gradientUnits="userSpaceOnUse">
<stop stop-color="#1164E1"/>
<stop offset="1" stop-color="#62B6DA"/>
</linearGradient>
<linearGradient id="paint4_linear_5_2" x1="137.677" y1="48" x2="137.495" y2="87" gradientUnits="userSpaceOnUse">
<stop stop-color="#FFE600"/>
<stop offset="0.5" stop-color="#FEC600" stop-opacity="0.92"/>
<stop offset="1" stop-color="#FF6B00"/>
</linearGradient>
</defs>
</svg>
